<svg width="19" height="12" viewBox="0 0 19 12" fill="none" xmlns="http://www.w3.org/2000/svg">
<path d="M1.33325 12H17.3333C17.8833 12 18.3333 11.55 18.3333 11C18.3333 10.45 17.8833 10 17.3333 10H1.33325C0.783252 10 0.333252 10.45 0.333252 11C0.333252 11.55 0.783252 12 1.33325 12ZM1.33325 7H17.3333C17.8833 7 18.3333 6.55 18.3333 6C18.3333 5.45 17.8833 5 17.3333 5H1.33325C0.783252 5 0.333252 5.45 0.333252 6C0.333252 6.55 0.783252 7 1.33325 7ZM0.333252 1C0.333252 1.55 0.783252 2 1.33325 2H17.3333C17.8833 2 18.3333 1.55 18.3333 1C18.3333 0.45 17.8833 0 17.3333 0H1.33325C0.783252 0 0.333252 0.45 0.333252 1Z" fill="#EAE8E4"/>
</svg>
